<?xml version="1.0" encoding="UTF-8" standalone="no"?>
<svg width="747px" height="600px" viewBox="0 0 747 600" version="1.1" xmlns="http://www.w3.org/2000/svg" xmlns:xlink="http://www.w3.org/1999/xlink">
    <title></title>
    <description></description>
    <defs>
    </defs>
    <path stroke-width="1" stroke="#000000" fill="none" d="M222,184.8 C297,402 369,456 634.2,552 " />
    <path stroke-width="1" stroke="#000000" fill="none" d="M486,580.8 C585,567.6 627,570 747,600 " />
    <path stroke-width="1" stroke="#000000" fill="none" d="M300,453 C370.2,480 418.2,516 486,580.8 " />
    <path stroke-width="1" stroke="#000000" fill="none" d="M147,600 C213,540 249,504 300,453 " />
    <path stroke-width="1" stroke="#000000" fill="none" d="M0,450 C57,504 93,540 147,600 " />
    <path stroke-width="1" stroke="#000000" fill="none" d="M0,450 C39,366 75,318 132,264 " />
    <path stroke-width="1" stroke="#000000" fill="none" d="M132,264 C180,387 195,402 300,453 " />
    <path stroke-width="1" stroke="#000000" fill="none" d="M132,264 C123,198 123,132 147,0 " />
    <path stroke-width="1" stroke="#000000" fill="none" d="M147,0 C243,54 267,84 294,129 " />
    <path stroke-width="1" stroke="#000000" fill="none" d="M294,129 C357,210 333,342 376.2,376.8 " />
    <path stroke-width="1" stroke="#000000" fill="none" d="M376.2,376.8 C387,390 417,420 456,453 " />
    <path stroke-width="1" stroke="#000000" fill="none" d="M456,453 C507,474 567,486 606,477 " />
    <path stroke-width="1" stroke="#000000" fill="none" d="M606,477 C663,528 699,564 747,600 " />
    <path stroke-width="1" stroke="#000000" fill="none" d="M294,129 C363,126 399,132 447,150 " />
    <path stroke-width="1" stroke="#000000" fill="none" d="M447,150 C447,225 447,255 447,300 " />
    <path stroke-width="1" stroke="#000000" fill="none" d="M447,300 C423,330 402,342 372,375 " />
    <path stroke-width="1" stroke="#000000" fill="none" d="M339,178.8 C381,163.2 411,163.2 439.2,190.2 " />
    <path stroke-width="1" stroke="#000000" fill="none" d="M353.4,240 C396,210 408,210 440.4,226.8 " />
    <path stroke-width="1" stroke="#000000" fill="none" d="M358.8,302.4 C381,261.6 393,259.2 440.4,268.2 " />
    <path stroke-width="1" stroke="#000000" fill="none" d="M426,346.8 C429,366 435,369 441,372 " />
    <path stroke-width="1" stroke="#000000" fill="none" d="M405,366 C414,390 417,402 441,411 " />
    <path stroke-width="1" stroke="#000000" fill="none" d="M33,438 C63,362.4 81,344.4 132,333 " />
    <path stroke-width="1" stroke="#000000" fill="none" d="M63,471 C87,411 105,390 159,378 " />
    <path stroke-width="1" stroke="#000000" fill="none" d="M96,510 C123,450 141,432 189,426 " />
    <path stroke-width="1" stroke="#000000" fill="none" d="M123,552 C153,492 183,468 222,459 " />
    <path stroke-width="1" stroke="#000000" fill="none" d="M181.8,207 C195,198 201,192 209.4,180 " />
    <path stroke-width="1" stroke="#000000" fill="none" d="M181.8,207 C172.2,174 172.2,144 183,111 " />
    <path stroke-width="1" stroke="#000000" fill="none" d="M183,111 C202.2,112.8 207,162 209.4,180 " />
    <path stroke-width="1" stroke="#000000" fill="none" d="M228,173.4 C237,166.8 252,157.8 265.2,151.2 " />
    <path stroke-width="1" stroke="#000000" fill="none" d="M228,173.4 C213,123 213,114 216,97.2 " />
    <path stroke-width="1" stroke="#000000" fill="none" d="M216,97.2 C237,117 253.2,132 265.2,151.2 " />
</svg>
