<?xml version="1.0" encoding="UTF-8" standalone="no"?>
<svg width="747px" height="600px" viewBox="0 0 747 600" version="1.1" xmlns="http://www.w3.org/2000/svg" xmlns:xlink="http://www.w3.org/1999/xlink">
    <title></title>
    <description></description>
    <defs>
    </defs>
    <path stroke-width="1" stroke="#000000" fill="none" d="M216.6,178.8 C303,423 345,445.2 636,553.2 " />
    <path stroke-width="1" stroke="#000000" fill="none" d="M486,579.6 C585,566.4 627,568.8 747,600 " />
    <path stroke-width="1" stroke="#000000" fill="none" d="M297.6,449.4 C370.2,481.2 418.2,518.4 486,579.6 " />
    <path stroke-width="1" stroke="#000000" fill="none" d="M147,600 C211.8,538.8 247.8,502.8 297.6,449.4 " />
    <path stroke-width="1" stroke="#000000" fill="none" d="M0,450 C57,504 93,540 147,600 " />
    <path stroke-width="1" stroke="#000000" fill="none" d="M0,450 C39,366 75,320.4 130.2,262.2 " />
    <path stroke-width="1" stroke="#000000" fill="none" d="M130.2,262.2 C180,387 195,402 297.6,449.4 " />
    <path stroke-width="1" stroke="#000000" fill="none" d="M132,264 C117,198 117,132 147,0 " />
    <path stroke-width="1" stroke="#000000" fill="none" d="M147,0 C237,54 267,86.4 289.2,121.2 " />
    <path stroke-width="1" stroke="#000000" fill="none" d="M289.2,121.2 C367.8,201.6 289.8,277.2 373.2,373.8 " />
    <path stroke-width="1" stroke="#000000" fill="none" d="M373.2,373.8 C387,390 417,420 456,453 " />
    <path stroke-width="1" stroke="#000000" fill="none" d="M456,453 C507,469.2 567,475.2 607.2,476.4 " />
    <path stroke-width="1" stroke="#000000" fill="none" d="M607.2,476.4 C651,534 678,555 747,600 " />
    <path stroke-width="1" stroke="#000000" fill="none" d="M289.2,121.2 C363,126 399,132 447,150 " />
    <path stroke-width="1" stroke="#000000" fill="none" d="M447,150 C447,225 447,255 447,300 " />
    <path stroke-width="1" stroke="#000000" fill="none" d="M447,300 C423,327.6 393,357.6 373.2,373.8 " />
    <path stroke-width="1" stroke="#000000" fill="none" d="M336,174 C373.8,160.8 402.6,164.4 439.2,184.8 " />
    <path stroke-width="1" stroke="#000000" fill="none" d="M351,237 C387,214.8 408,211.8 440.4,224.4 " />
    <path stroke-width="1" stroke="#000000" fill="none" d="M355.8,298.8 C387,261.6 400.2,259.2 440.4,262.2 " />
    <path stroke-width="1" stroke="#000000" fill="none" d="M417.6,349.2 C426,360 435,369 441,371.4 " />
    <path stroke-width="1" stroke="#000000" fill="none" d="M399.6,367.2 C411,390 420,399 442.2,405 " />
    <path stroke-width="1" stroke="#000000" fill="none" d="M45,457.8 C72,387 108,357 148.2,338.4 " />
    <path stroke-width="1" stroke="#000000" fill="none" d="M74.4,487.2 C111,420 129,402 171,375 " />
    <path stroke-width="1" stroke="#000000" fill="none" d="M112.2,525 C141,456 165,432 207,407.4 " />
    <path stroke-width="1" stroke="#000000" fill="none" d="M133.8,562.2 C183,480 207,456 243,430.8 " />
    <path stroke-width="1" stroke="#000000" fill="none" d="M178.8,205.2 C192,193.8 198,187.8 205.8,180 " />
    <path stroke-width="1" stroke="#000000" fill="none" d="M178.8,205.2 C172.2,174 172.2,144 178.8,108.6 " />
    <path stroke-width="1" stroke="#000000" fill="none" d="M178.8,108.6 C202.2,112.8 203.4,148.8 205.8,180 " />
    <path stroke-width="1" stroke="#000000" fill="none" d="M225,169.2 C237,162 252,153 262.2,148.8 " />
    <path stroke-width="1" stroke="#000000" fill="none" d="M225,169.2 C213,123 213,114 214.2,93 " />
    <path stroke-width="1" stroke="#000000" fill="none" d="M214.2,93 C237,117 253.2,132 262.2,148.8 " />
</svg>
