<?xml version="1.0" encoding="UTF-8" standalone="no"?>
<svg width="750px" height="600px" viewBox="0 0 750 600" version="1.1" xmlns="http://www.w3.org/2000/svg" xmlns:xlink="http://www.w3.org/1999/xlink">
    <title></title>
    <description></description>
    <defs>
    </defs>
    <path stroke-width="1" stroke="#000000" fill="none" d="M219.6,178.8 C306,423 348,445.2 639,553.2 " />
    <path stroke-width="1" stroke="#000000" fill="none" d="M488.4,580.8 C588,566.4 651,574.8 750,600 " />
    <path stroke-width="1" stroke="#000000" fill="none" d="M300,450 C373.2,484.2 421.2,520.8 488.4,580.8 " />
    <path stroke-width="1" stroke="#000000" fill="none" d="M150,600 C214.8,536.4 250.8,500.4 300,450 " />
    <path stroke-width="1" stroke="#000000" fill="none" d="M0,450 C60,506.4 96,542.4 150,600 " />
    <path stroke-width="1" stroke="#000000" fill="none" d="M0,450 C42,366 80.4,320.4 130.8,261.6 " />
    <path stroke-width="1" stroke="#000000" fill="none" d="M130.8,261.6 C183,387 198,402 300.6,449.4 " />
    <path stroke-width="1" stroke="#000000" fill="none" d="M130.8,261.6 C121.8,198 120,132 150,0 " />
    <path stroke-width="1" stroke="#000000" fill="none" d="M150,0 C240,56.4 270,90 291,120.6 " />
    <path stroke-width="1" stroke="#000000" fill="none" d="M291,120.6 C370.8,210 289.2,276 376.2,373.8 " />
    <path stroke-width="1" stroke="#000000" fill="none" d="M376.2,373.8 C390,390 420,420 450,450 " />
    <path stroke-width="1" stroke="#000000" fill="none" d="M450,450 C510,469.2 570,475.2 609,479.4 " />
    <path stroke-width="1" stroke="#000000" fill="none" d="M609,479.4 C654,534 681,555 750,600 " />
    <path stroke-width="1" stroke="#000000" fill="none" d="M291,120.6 C366,126 402,132 450,150 " />
    <path stroke-width="1" stroke="#000000" fill="none" d="M450,150 C450,225 450,255 450,300 " />
    <path stroke-width="1" stroke="#000000" fill="none" d="M450,300 C426,327.6 396,357.6 376.2,373.8 " />
    <path stroke-width="1" stroke="#000000" fill="none" d="M339,174 C376.8,160.8 405.6,164.4 442.2,184.8 " />
    <path stroke-width="1" stroke="#000000" fill="none" d="M354,237 C390,214.8 411,211.8 443.4,224.4 " />
    <path stroke-width="1" stroke="#000000" fill="none" d="M358.8,298.8 C390,261.6 403.2,259.2 443.4,262.2 " />
    <path stroke-width="1" stroke="#000000" fill="none" d="M420.6,349.2 C429,360 438,369 444,371.4 " />
    <path stroke-width="1" stroke="#000000" fill="none" d="M402.6,367.2 C414,390 423,399 445.2,405 " />
    <path stroke-width="1" stroke="#000000" fill="none" d="M48,457.8 C75,387 111,357 151.2,338.4 " />
    <path stroke-width="1" stroke="#000000" fill="none" d="M77.4,487.2 C114,420 132,402 174,375 " />
    <path stroke-width="1" stroke="#000000" fill="none" d="M115.2,525 C144,456 168,432 210,407.4 " />
    <path stroke-width="1" stroke="#000000" fill="none" d="M136.8,562.2 C186,480 210,456 246,430.8 " />
    <path stroke-width="1" stroke="#000000" fill="none" d="M181.8,205.2 C195,193.8 201,187.8 208.8,180 " />
    <path stroke-width="1" stroke="#000000" fill="none" d="M181.8,205.2 C175.2,174 175.2,144 181.8,108.6 " />
    <path stroke-width="1" stroke="#000000" fill="none" d="M181.8,108.6 C201,112.8 205.2,148.8 208.8,180 " />
    <path stroke-width="1" stroke="#000000" fill="none" d="M228,169.2 C240,162 255,153 262.2,148.8 " />
    <path stroke-width="1" stroke="#000000" fill="none" d="M228,169.2 C216,123 216,114 217.2,93 " />
    <path stroke-width="1" stroke="#000000" fill="none" d="M217.2,93 C240,117 253.2,132 262.2,148.8 " />
</svg>
