<?xml version="1.0" encoding="UTF-8" standalone="no"?>
<svg width="750px" height="600px" viewBox="0 0 750 600" version="1.1" xmlns="http://www.w3.org/2000/svg" xmlns:xlink="http://www.w3.org/1999/xlink">
    <title></title>
    <description></description>
    <defs>
    </defs>
    <path stroke-width="1" stroke="#000000" fill="none" d="M219.6,178.8 C306,423 348,445.2 639,553.2 " />
    <path stroke-width="1" stroke="#000000" fill="none" d="M488.4,580.8 C588,566.4 650.4,574.8 750,600 " />
    <path stroke-width="1" stroke="#000000" fill="none" d="M300,450 C373.2,483.6 421.2,520.8 488.4,580.8 " />
    <path stroke-width="1" stroke="#000000" fill="none" d="M150,600 C216,534 255,495 300,450 " />
    <path stroke-width="1" stroke="#000000" fill="none" d="M0,450 C60,510 96,546 150,600 " />
    <path stroke-width="1" stroke="#000000" fill="none" d="M0,450 C33.6,376.8 70.8,328.8 130.8,261.6 " />
    <path stroke-width="1" stroke="#000000" fill="none" d="M130.8,261.6 C183,387 198,402 300,450 " />
    <path stroke-width="1" stroke="#000000" fill="none" d="M130.8,261.6 C116.4,162 124.8,99.6 150,0 " />
    <path stroke-width="1" stroke="#000000" fill="none" d="M150,0 C212.4,37.2 247.8,64.2 290.4,121.2 " />
    <path stroke-width="1" stroke="#000000" fill="none" d="M290.4,121.2 C370.8,210 289.2,276 376.2,373.8 " />
    <path stroke-width="1" stroke="#000000" fill="none" d="M376.2,373.8 C390,390 420,420 450,450 " />
    <path stroke-width="1" stroke="#000000" fill="none" d="M450,450 C503.4,469.8 546,475.2 609.6,478.8 " />
    <path stroke-width="1" stroke="#000000" fill="none" d="M609.6,478.8 C652.2,535.8 687.6,562.8 750,600 " />
    <path stroke-width="1" stroke="#000000" fill="none" d="M290.4,121.2 C354,124.8 396.6,130.2 450,150 " />
    <path stroke-width="1" stroke="#000000" fill="none" d="M450,150 C450,225 450,255 450,300 " />
    <path stroke-width="1" stroke="#000000" fill="none" d="M450,300 C426,324 396,354 376.2,373.8 " />
    <path stroke-width="1" stroke="#000000" fill="none" d="M339,174 C376.8,160.8 405.6,164.4 442.2,184.8 " />
    <path stroke-width="1" stroke="#000000" fill="none" d="M354,237 C390,214.8 411,211.8 443.4,224.4 " />
    <path stroke-width="1" stroke="#000000" fill="none" d="M358.8,298.8 C390,261.6 403.2,259.2 443.4,262.2 " />
    <path stroke-width="1" stroke="#000000" fill="none" d="M420.6,349.2 C429,360 438,369 444,371.4 " />
    <path stroke-width="1" stroke="#000000" fill="none" d="M402.6,367.2 C414,390 423,399 445.2,405 " />
    <path stroke-width="1" stroke="#000000" fill="none" d="M48,457.8 C75,387 111,357 151.2,338.4 " />
    <path stroke-width="1" stroke="#000000" fill="none" d="M77.4,487.2 C114,420 132,402 174,375 " />
    <path stroke-width="1" stroke="#000000" fill="none" d="M115.2,525 C144,456 168,432 210,407.4 " />
    <path stroke-width="1" stroke="#000000" fill="none" d="M136.8,562.2 C186,480 210,456 246,430.8 " />
    <path stroke-width="1" stroke="#000000" fill="none" d="M181.8,205.2 C195,193.8 201,187.8 208.8,180 " />
    <path stroke-width="1" stroke="#000000" fill="none" d="M181.8,205.2 C175.2,174 175.2,144 181.8,108.6 " />
    <path stroke-width="1" stroke="#000000" fill="none" d="M181.8,108.6 C201,112.8 205.2,148.8 208.8,180 " />
    <path stroke-width="1" stroke="#000000" fill="none" d="M228,169.2 C240,162 255,153 262.2,148.8 " />
    <path stroke-width="1" stroke="#000000" fill="none" d="M228,169.2 C216,123 216,114 217.2,93 " />
    <path stroke-width="1" stroke="#000000" fill="none" d="M217.2,93 C240,117 253.2,132 262.2,148.8 " />
</svg>
